<?xml version="1.0" encoding="UTF-8"?>
<svg xmlns="http://www.w3.org/2000/svg" xmlns:xlink="http://www.w3.org/1999/xlink" width="2401" height="2626" viewBox="0 0 2401 2626">
<path fill-rule="nonzero" fill="rgb(0%, 0%, 0%)" fill-opacity="1" d="M 909.832031 4.53125 C 902.375 6.890625 894.238281 10.738281 891.976562 12.890625 C 888.136719 16.960938 888.136719 17.820312 892.203125 31.53125 C 897.628906 50.398438 895.140625 60.691406 877.0625 96.699219 L 863.277344 124.570312 L 882.484375 148.78125 C 903.277344 175.148438 915.933594 193.800781 927.910156 216.519531 C 939.890625 238.820312 948.253906 238.820312 951.640625 216.519531 C 954.128906 200.019531 958.648438 192.941406 983.054688 169.148438 L 1004.53125 148.140625 L 987.578125 130.570312 C 962.714844 104.410156 962.488281 103.988281 969.949219 76.550781 L 974.46875 59.828125 L 968.816406 47.609375 C 964.976562 38.609375 963.621094 32.820312 964.75 27.460938 C 966.785156 14.601562 964.070312 9.03125 953.449219 4.53125 C 941.472656 -0.828125 927.460938 -0.621094 909.832031 4.53125 Z M 909.832031 4.53125 "/>
<path fill-rule="nonzero" fill="rgb(0%, 0%, 0%)" fill-opacity="1" d="M 698.746094 20.601562 C 661.910156 26.179688 633.660156 36.460938 584.84375 61.96875 L 553.65625 78.480469 L 555.011719 88.121094 C 564.277344 150.929688 564.050781 171.289062 553.65625 181.800781 C 548.910156 186.730469 547.554688 186.941406 531.960938 185.441406 C 519.078125 184.371094 513.425781 184.800781 505.515625 187.800781 C 493.539062 192.089844 484.046875 201.941406 484.046875 210.089844 C 484.046875 225.308594 423.703125 263.679688 387.996094 271.398438 C 368.5625 275.46875 329.238281 293.691406 320.195312 302.480469 C 314.320312 308.269531 313.417969 311.050781 312.738281 324.128906 C 312.0625 332.921875 312.964844 341.488281 314.546875 345.351562 C 318.386719 353.921875 346.1875 378.789062 378.957031 402.578125 C 393.871094 413.519531 457.378906 458.960938 520.207031 503.539062 C 639.308594 588 694.226562 628.078125 708.011719 640.300781 C 717.730469 649.300781 736.488281 652.941406 760.898438 651.019531 C 791.859375 648.441406 815.363281 634.300781 938.308594 544.910156 C 994.808594 503.761719 1008.371094 493.25 1008.371094 490.039062 C 1008.371094 486.820312 997.746094 478.679688 976.050781 465.601562 C 938.761719 442.878906 921.359375 407.078125 933.5625 377.929688 C 939.664062 363.359375 939.664062 341.921875 934.015625 300.339844 C 931.527344 283.191406 929.71875 262.390625 929.945312 254.25 C 930.398438 240.320312 929.71875 237.738281 919.777344 218.449219 C 907.121094 193.589844 898.304688 180.300781 873.671875 148.78125 L 854.914062 124.988281 L 870.734375 92.621094 C 880.453125 72.691406 887.007812 56.398438 887.910156 49.75 C 889.039062 39.890625 888.589844 38.609375 882.484375 32.820312 C 875.027344 25.53125 863.5 22.75 828.699219 19.53125 C 796.605469 16.53125 721.574219 17.179688 698.746094 20.601562 Z M 698.746094 20.601562 "/>
<path fill-rule="nonzero" fill="rgb(0%, 0%, 0%)" fill-opacity="1" d="M 421.445312 58.539062 C 418.957031 61.328125 413.535156 68.191406 409.46875 74.191406 C 397.035156 91.558594 376.246094 111.058594 349.578125 129.929688 C 301.4375 164.21875 283.808594 189.089844 278.160156 231.53125 C 275.902344 248.25 274.320312 253.179688 267.085938 263.460938 C 252.847656 284.46875 223.921875 306.769531 169.90625 338.488281 L 161.996094 343.210938 L 221.886719 343.210938 C 256.464844 343.210938 285.390625 342.128906 290.136719 341.058594 C 299.855469 338.488281 302.117188 335.488281 304.375 321.769531 C 305.28125 316.410156 307.992188 309.121094 310.480469 305.269531 C 319.292969 291.328125 356.355469 270.96875 385.960938 263.890625 C 407.433594 258.75 418.957031 253.820312 438.847656 241.601562 C 462.351562 227.238281 475.007812 215.449219 475.007812 207.949219 C 475.007812 200.230469 486.308594 189.089844 501.222656 182.230469 C 508.90625 178.800781 517.945312 176.871094 531.054688 176.011719 C 552.074219 174.71875 554.105469 173.441406 553.882812 159.929688 C 553.882812 139.359375 549.8125 96.910156 547.554688 93.058594 C 544.390625 87.480469 536.929688 84.691406 512.296875 80.621094 C 485.628906 76.121094 460.542969 68.191406 447.886719 60.261719 C 435.683594 52.539062 427.773438 52.109375 421.445312 58.539062 Z M 421.445312 58.539062 "/>
<path fill-rule="nonzero" fill="rgb(0%, 0%, 0%)" fill-opacity="1" d="M 1008.820312 156.070312 C 1000.460938 159.929688 971.304688 188.660156 966.105469 198.089844 C 964.296875 201.519531 961.132812 209.449219 959.324219 215.449219 C 957.519531 221.449219 952.320312 233.03125 947.800781 240.960938 C 940.566406 254.25 939.664062 257.25 939.890625 271.179688 C 940.117188 279.539062 941.925781 297.339844 943.730469 310.621094 C 948.703125 344.28125 948.476562 364 942.828125 376.429688 C 933.5625 397.011719 939.4375 422.300781 957.96875 442.019531 C 963.847656 448.019531 979.890625 460.03125 993.902344 468.820312 C 1007.691406 477.390625 1019.671875 485.960938 1020.570312 487.890625 C 1023.730469 496.039062 1070.96875 510.398438 1105.769531 513.621094 C 1117.980469 514.898438 1122.5 514.46875 1129.5 511.261719 C 1157.53125 498.398438 1207.019531 516.828125 1332.230469 586.28125 C 1420.589844 635.160156 1428.730469 638.589844 1430.539062 626.800781 C 1430.988281 623.371094 1433.480469 621.441406 1438.449219 620.148438 C 1442.96875 619.078125 1446.808594 616.289062 1448.839844 612.429688 C 1453.820312 602.570312 1455.628906 535.691406 1455.628906 362.5 L 1455.851562 200.660156 L 1419.011719 184.160156 C 1375.171875 164.648438 1356.640625 158.859375 1336.75 158.859375 C 1308.269531 158.859375 1296.519531 170.871094 1296.96875 199.371094 C 1297.421875 221.238281 1289.960938 233.890625 1268.269531 247.390625 C 1260.359375 252.53125 1255.160156 251.890625 1236.398438 243.75 C 1227.140625 239.671875 1212 234.308594 1202.730469 231.738281 C 1147.808594 216.738281 1154.820312 220.589844 1125.210938 188.230469 C 1111.648438 173.21875 1099.898438 167.859375 1061.480469 159.070312 C 1028.261719 151.570312 1019.441406 151.140625 1008.820312 156.070312 Z M 1008.820312 156.070312 "/>
<path fill-rule="nonzero" fill="rgb(0%, 0%, 0%)" fill-opacity="1" d="M 1468.5 213.949219 C 1467.601562 218.449219 1466.46875 294.980469 1465.570312 384.148438 L 1464.441406 546.410156 L 1511.441406 546.628906 C 1537.441406 546.839844 1607.71875 547.910156 1667.839844 549.199219 L 1777 551.558594 L 1787.839844 545.121094 C 1793.949219 541.691406 1807.960938 531.839844 1819.261719 523.261719 L 1839.820312 507.609375 L 1835.308594 496.679688 C 1828.070312 479.109375 1788.300781 407.511719 1763.441406 366.78125 C 1735.410156 321.339844 1720.71875 293.261719 1718.691406 282.539062 C 1717.558594 275.46875 1718.011719 274.609375 1722.078125 274.609375 C 1724.558594 274.609375 1732.46875 279.109375 1739.480469 284.46875 C 1746.480469 289.828125 1752.589844 293.910156 1753.269531 293.261719 C 1753.71875 292.828125 1751.460938 280.609375 1748.070312 266.25 C 1741.058594 235.390625 1738.570312 232.808594 1711.230469 225.308594 C 1686.140625 218.671875 1659.699219 217.589844 1633.261719 222.101562 C 1606.371094 226.601562 1591.898438 225.738281 1531.558594 215.660156 C 1508.058594 211.808594 1484.320312 207.949219 1479.351562 207.089844 L 1469.859375 205.808594 Z M 1468.5 213.949219 "/>
<path fill-rule="nonzero" fill="rgb(0%, 0%, 0%)" fill-opacity="1" d="M 130.355469 384.570312 C 118.152344 402.371094 99.621094 431.089844 89.449219 448.238281 C 79.28125 465.390625 60.746094 494.109375 48.316406 512.121094 C 23.007812 548.558594 18.261719 558.199219 23.457031 563.351562 C 28.65625 568.058594 51.933594 570.421875 98.265625 570.421875 L 140.527344 570.421875 L 140.527344 553.269531 C 140.527344 529.269531 143.691406 523.050781 161.542969 512.550781 C 169.453125 507.828125 177.363281 501.179688 178.945312 497.96875 C 181.207031 493.890625 182.335938 478.890625 183.015625 446.738281 L 183.917969 401.078125 L 242.90625 400.648438 L 302.117188 400.011719 L 302.792969 375.789062 L 303.472656 351.78125 L 152.957031 351.78125 Z M 130.355469 384.570312 "/>
<path fill-rule="nonzero" fill="rgb(0%, 0%, 0%)" fill-opacity="1" d="M 313.417969 382.859375 C 310.703125 407.078125 312.964844 406.230469 248.328125 407.078125 L 193.183594 407.730469 L 191.828125 450.171875 C 190.246094 501.609375 189.34375 504.398438 170.808594 514.898438 C 152.730469 524.980469 149.566406 531.410156 149.566406 557.988281 L 149.566406 578.570312 L 82.894531 579.421875 C 42.667969 579.851562 15.546875 580.929688 14.417969 582.210938 C 12.835938 583.5 15.320312 591.210938 20.972656 603.429688 C 32.949219 628.730469 38.375 648.230469 41.539062 676.53125 C 43.796875 697.109375 43.570312 702.25 40.183594 717.25 C 37.921875 726.679688 35.660156 737.191406 34.984375 740.621094 L 33.628906 746.621094 L 43.570312 745.121094 C 81.992188 738.691406 115.441406 756.910156 145.273438 800.210938 C 151.601562 809.429688 158.152344 816.929688 159.960938 816.929688 C 161.542969 816.929688 165.160156 812.859375 168.097656 807.710938 C 171.488281 801.921875 176.460938 797.210938 182.335938 794.421875 C 190.925781 790.351562 196.800781 790.128906 285.84375 789.488281 L 380.085938 788.851562 L 380.085938 636.230469 C 380.085938 552.199219 380.992188 475.460938 382.347656 465.601562 C 384.605469 447.378906 388.449219 439.660156 395.679688 439.660156 C 402.914062 439.660156 405.625 436.230469 402.914062 431.308594 C 400.425781 427.019531 320.421875 368.929688 316.804688 368.929688 C 315.902344 368.929688 314.320312 375.140625 313.417969 382.859375 Z M 313.417969 382.859375 "/>
<path fill-rule="nonzero" fill="rgb(0%, 0%, 0%)" fill-opacity="1" d="M 389.125 449.738281 C 389.125 450.808594 388.902344 529.050781 388.449219 624.011719 L 387.996094 796.558594 L 291.945312 797.640625 C 185.953125 798.921875 182.789062 799.140625 175.78125 812.429688 C 169.453125 824 171.261719 833.429688 183.917969 857.441406 C 194.3125 876.941406 195.894531 881.660156 195.894531 892.589844 C 195.894531 902.449219 196.800781 905.878906 200.191406 908.03125 C 207.875 913.390625 223.46875 914.238281 243.128906 910.171875 C 263.46875 906.308594 276.804688 907.808594 283.359375 914.890625 C 289.007812 921.101562 295.5625 935.039062 298.726562 947.679688 C 302.570312 962.691406 305.054688 966.328125 313.191406 969.121094 C 320.648438 971.480469 353.417969 971.910156 369.691406 969.980469 L 380.3125 968.480469 L 409.691406 927.109375 C 425.738281 904.601562 444.722656 880.371094 451.953125 873.300781 C 467.550781 858.300781 485.855469 848.871094 510.261719 842.859375 C 533.992188 837.078125 543.257812 833.429688 559.757812 822.710938 C 580.550781 809.429688 593.429688 804.710938 626.425781 798.710938 C 643.152344 795.710938 667.558594 791.199219 680.441406 788.851562 C 693.550781 786.488281 709.59375 782.421875 716.375 779.839844 C 734.003906 773.199219 735.359375 768.910156 736.488281 715.109375 C 737.621094 664.730469 736.941406 662.589844 721.121094 659.378906 C 709.820312 657.019531 703.265625 652.941406 703.265625 648.660156 C 703.265625 635.160156 493.3125 488.960938 425.738281 455.308594 C 415.117188 450.171875 408.5625 448.238281 400.199219 448.238281 C 394.097656 448.238281 389.125 448.878906 389.125 449.738281 Z M 389.125 449.738281 "/>
<path fill-rule="nonzero" fill="rgb(0%, 0%, 0%)" fill-opacity="1" d="M 969.722656 531.191406 C 838.867188 625.300781 790.503906 655.949219 766.320312 659.378906 C 760.671875 660.230469 754.570312 661.519531 752.988281 662.589844 C 748.917969 664.949219 746.433594 681.238281 746.207031 709.75 C 745.980469 742.761719 742.816406 762.058594 735.359375 776.199219 C 726.320312 793.351562 722.476562 795.28125 690.835938 797.640625 C 652.417969 800.640625 624.167969 804.28125 615.804688 807.5 C 606.765625 810.929688 605.183594 816.28125 606.765625 836.859375 C 607.667969 851.21875 608.347656 852.511719 616.484375 859.800781 C 625.296875 867.519531 703.042969 913.390625 707.335938 913.390625 C 708.464844 913.390625 715.699219 903.949219 723.15625 892.378906 C 746.207031 857.011719 763.835938 843.71875 787.113281 844.359375 C 799.769531 844.578125 803.613281 845.859375 844.519531 862.589844 C 886.328125 879.730469 922.261719 883.371094 950.738281 873.519531 C 980.117188 863.441406 981.699219 863.230469 997.292969 868.160156 C 1016.28125 874.160156 1028.480469 873.941406 1042.269531 867.300781 C 1054.46875 861.511719 1062.378906 851.871094 1068.03125 836.859375 C 1072.328125 825.070312 1085.429688 803.851562 1110.289062 768.269531 C 1134.25 733.96875 1139 722.609375 1142.160156 691.75 C 1148.261719 630.230469 1135.378906 561.851562 1111.648438 531.410156 C 1106.679688 524.980469 1099.898438 521.980469 1085.890625 520.261719 C 1080.691406 519.621094 1062.839844 514.691406 1046.109375 509.328125 C 1029.390625 503.96875 1015.148438 499.679688 1014.46875 499.679688 C 1013.789062 499.679688 993.679688 513.828125 969.722656 531.191406 Z M 969.722656 531.191406 "/>
<path fill-rule="nonzero" fill="rgb(0%, 0%, 0%)" fill-opacity="1" d="M 1132.210938 518.980469 C 1122.050781 526.480469 1123.628906 535.691406 1142.390625 577.921875 C 1150.75 596.78125 1153.910156 623.371094 1152.109375 662.589844 C 1150.300781 700.109375 1147.359375 719.609375 1141.480469 732.691406 C 1139.21875 737.621094 1126.109375 757.550781 1112.558594 776.839844 C 1082.5 819.28125 1077.519531 828.929688 1077.519531 844.789062 C 1077.75 858.300781 1082.5 868.160156 1104.871094 902.238281 C 1112.78125 914.238281 1122.71875 931.179688 1127.019531 939.539062 C 1144.648438 974.261719 1142.609375 987.980469 1117.53125 1001.058594 C 1107.578125 1006.199219 1103.289062 1009.628906 1103.289062 1012.628906 C 1103.289062 1014.988281 1108.710938 1025.070312 1115.488281 1035.359375 C 1122.050781 1045.429688 1129.960938 1058.070312 1132.890625 1063.429688 C 1139.679688 1075.441406 1145.78125 1078.441406 1164.078125 1078.441406 C 1192.558594 1078.441406 1224.648438 1066.011719 1253.808594 1043.5 C 1263.519531 1036 1277.308594 1026.988281 1284.089844 1023.78125 C 1299.460938 1016.488281 1382.171875 962.261719 1400.03125 947.679688 C 1400.929688 946.820312 1396.179688 935.25 1389.410156 921.75 C 1373.589844 890.019531 1371.101562 879.730469 1374.488281 859.371094 C 1380.140625 823.78125 1398.441406 789.699219 1416.070312 781.769531 C 1427.820312 776.628906 1428.960938 769.769531 1429.410156 703.960938 L 1429.859375 647.160156 L 1389.179688 624.648438 C 1240.921875 542.558594 1187.359375 517.898438 1151.878906 515.328125 C 1140.351562 514.46875 1137.410156 514.898438 1132.210938 518.980469 Z M 1132.210938 518.980469 "/>
<path fill-rule="nonzero" fill="rgb(0%, 0%, 0%)" fill-opacity="1" d="M 1814.058594 535.480469 L 1789.199219 555.839844 L 1627.378906 554.558594 L 1465.570312 553.058594 L 1464.441406 584.78125 C 1463.761719 602.140625 1462.398438 618.21875 1461.5 620.359375 C 1460.589844 622.511719 1456.53125 625.511719 1452.230469 627.21875 C 1446.578125 629.371094 1444.320312 631.941406 1442.519531 638.371094 C 1441.390625 642.871094 1439.351562 676.101562 1438.449219 712.109375 C 1436.640625 768.269531 1435.730469 778.769531 1432.570312 783.488281 C 1430.308594 786.488281 1426.691406 789.058594 1424.210938 789.058594 C 1421.5 789.058594 1415.171875 793.128906 1409.96875 798.28125 C 1397.988281 809.429688 1387.371094 832.570312 1383.308594 856.148438 C 1379.691406 877.160156 1381.71875 887.660156 1396.179688 918.960938 C 1402.058594 931.820312 1406.808594 945.109375 1406.808594 948.320312 C 1406.808594 952.609375 1408.839844 955.609375 1413.589844 958.828125 C 1421.71875 964.398438 1431.21875 983.050781 1439.128906 1008.988281 C 1447.488281 1036.640625 1453.589844 1046.289062 1468.5 1054.640625 C 1480.480469 1061.5 1487.941406 1069.21875 1515.511719 1102.871094 C 1522.75 1111.878906 1534.050781 1123.238281 1540.378906 1128.171875 C 1559.128906 1142.53125 1564.328125 1148.960938 1564.328125 1158.390625 C 1564.328125 1173.820312 1583.988281 1200.621094 1595.289062 1200.621094 C 1598.230469 1200.621094 1606.820312 1198.261719 1614.5 1195.261719 C 1622.191406 1192.261719 1631.230469 1189.898438 1634.390625 1189.898438 C 1638.230469 1189.898438 1649.078125 1195.261719 1662.410156 1203.621094 C 1691.570312 1222.269531 1699.699219 1223.128906 1754.851562 1214.339844 C 1785.589844 1209.410156 1801.179688 1204.050781 1810.671875 1195.261719 C 1817.898438 1188.621094 1821.289062 1187.121094 1833.71875 1185.621094 C 1852.710938 1183.46875 1858.128906 1180.679688 1858.128906 1173.179688 C 1858.128906 1166.320312 1855.191406 1162.039062 1835.980469 1140.601562 C 1827.851562 1131.808594 1819.03125 1119.589844 1816.320312 1113.589844 C 1810.449219 1101.589844 1803.441406 1095.800781 1779.261719 1083.578125 C 1750.558594 1069.21875 1749.878906 1061.289062 1776.320312 1046.5 C 1799.820312 1033.210938 1802.308594 1029.78125 1801.859375 1013.488281 C 1801.179688 989.058594 1816.089844 954.761719 1846.828125 909.101562 C 1865.808594 881.019531 1871.011719 871.371094 1873.949219 858.300781 C 1875.308594 852.511719 1879.148438 845.441406 1882.539062 842.011719 L 1888.640625 836 L 1884.351562 825.929688 C 1869.199219 790.128906 1885.699219 748.550781 1927.511719 716.179688 C 1937.230469 708.679688 1945.589844 702.25 1946.039062 702.03125 C 1946.5 701.609375 1940.171875 694.320312 1932.261719 685.738281 C 1924.121094 677.171875 1914.179688 665.378906 1910.109375 659.589844 C 1900.839844 646.519531 1892.03125 623.578125 1892.03125 612 C 1892.03125 597.640625 1887.960938 580.929688 1880.960938 567.210938 C 1873.71875 552.628906 1845.019531 514.691406 1841.410156 514.898438 C 1840.050781 514.898438 1827.851562 524.121094 1814.058594 535.480469 Z M 1814.058594 535.480469 "/>
<path fill-rule="nonzero" fill="rgb(0%, 0%, 0%)" fill-opacity="1" d="M 1942.878906 716.609375 C 1915.308594 723.898438 1887.058594 766.339844 1886.609375 801.28125 C 1886.378906 814.359375 1887.058594 817.570312 1891.128906 821.210938 C 1896.320312 826.140625 1898.589844 826.359375 1937.230469 824.429688 C 1993.960938 821.210938 2013.621094 828.070312 2054.980469 864.519531 C 2087.289062 893.238281 2097.011719 900.308594 2104.019531 900.519531 C 2110.121094 900.519531 2110.121094 899.878906 2105.148438 892.378906 C 2096.339844 879.308594 2078.710938 861.941406 2042.089844 830.859375 C 1988.53125 784.988281 1977.679688 772.339844 1970 745.980469 C 1962.320312 720.039062 1955.761719 712.960938 1942.878906 716.609375 Z M 1942.878906 716.609375 "/>
<path fill-rule="nonzero" fill="rgb(0%, 0%, 0%)" fill-opacity="1" d="M 44.476562 754.550781 C 34.757812 758.839844 19.390625 773.199219 7.636719 788.851562 C 2.441406 795.710938 0.40625 800.851562 0.40625 806.640625 C 0.40625 815.640625 8.089844 831.71875 17.355469 842.21875 L 23.457031 849.078125 L 47.640625 848.648438 C 64.816406 848.441406 75.210938 849.511719 83.121094 852.078125 C 97.359375 856.371094 105.722656 863.230469 102.105469 867.300781 C 98.941406 870.941406 90.128906 872.441406 47.414062 875.871094 C 5.152344 879.089844 1.535156 880.589844 7.636719 892.589844 C 9.671875 896.671875 13.289062 900.519531 15.773438 900.949219 C 18.261719 901.601562 29.109375 899.878906 40.183594 897.089844 C 80.410156 887.019531 86.964844 886.808594 145.273438 894.949219 C 169.226562 898.378906 184.824219 896.878906 189.34375 890.878906 C 192.957031 886.160156 190.472656 881.449219 164.933594 842.21875 C 113.859375 764.191406 79.507812 739.121094 44.476562 754.550781 Z M 44.476562 754.550781 "/>
<path fill-rule="nonzero" fill="rgb(0%, 0%, 0%)" fill-opacity="1" d="M 584.617188 815 C 581 816.070312 572.1875 821.429688 565.179688 827.210938 C 550.039062 839.429688 536.707031 845.21875 510.035156 851.21875 C 483.367188 857.011719 467.773438 864.730469 454.667969 878.441406 C 444.269531 889.160156 399.75 950.039062 396.585938 957.539062 C 394.550781 962.691406 418.957031 984.980469 432.972656 990.769531 C 441.332031 994.199219 449.242188 995.480469 462.125 995.699219 C 484.726562 995.910156 488.339844 992.691406 488.792969 972.550781 C 489.019531 960.539062 489.246094 960.121094 491.054688 966.980469 C 492.183594 971.050781 493.765625 986.480469 494.441406 1001.269531 C 495.574219 1022.710938 494.894531 1034.929688 490.828125 1062.359375 C 487.210938 1086.800781 486.082031 1101.160156 487.210938 1112.730469 C 490.148438 1144.460938 501.222656 1177.039062 509.132812 1177.039062 C 521.5625 1177.039062 616.257812 1143.390625 621.003906 1137.390625 C 624.394531 1133.101562 621.679688 1119.589844 614.449219 1104.160156 C 606.992188 1087.871094 603.828125 1073.511719 601.339844 1041.359375 C 597.726562 994.199219 589.816406 968.261719 577.160156 962.691406 C 573.316406 960.96875 556.820312 959.691406 531.960938 958.828125 C 510.488281 958.398438 493.3125 957.328125 493.992188 956.898438 C 494.441406 956.46875 519.078125 954.539062 548.683594 953.039062 C 617.160156 949.179688 638.855469 944.46875 657.839844 929.25 C 665.75 923.03125 671.628906 913.601562 671.628906 907.378906 C 671.628906 901.808594 664.394531 896.238281 644.054688 885.730469 C 623.488281 875.019531 605.859375 860.660156 600.4375 849.941406 C 597.5 843.941406 596.820312 839.21875 597.953125 830.21875 C 598.855469 822.710938 598.402344 817.570312 596.820312 815.640625 C 593.882812 812.210938 594.109375 812.210938 584.617188 815 Z M 584.617188 815 "/>
<path fill-rule="nonzero" fill="rgb(0%, 0%, 0%)" fill-opacity="1" d="M 1918.46875 834.070312 C 1907.398438 836.859375 1894.058594 843.289062 1889.539062 848.21875 C 1887.511719 850.578125 1884.121094 857.441406 1881.859375 863.660156 C 1879.828125 869.871094 1871.46875 885.308594 1863.101562 897.949219 C 1821.519531 962.261719 1812.929688 980.910156 1811.351562 1009.839844 C 1810.671875 1020.988281 1809.089844 1031.5 1807.730469 1033.210938 C 1806.148438 1034.710938 1796.210938 1041.789062 1785.359375 1048.640625 C 1774.730469 1055.5 1765.238281 1062.148438 1764.570312 1063.21875 C 1762.761719 1066.011719 1770.441406 1071.359375 1792.359375 1082.511719 C 1811.570312 1092.371094 1824.230469 1103.519531 1824.230469 1110.378906 C 1824.230469 1120.878906 1866.949219 1164.820312 1900.390625 1188.621094 C 1927.058594 1207.480469 1956.21875 1222.480469 1968.871094 1223.769531 C 1976.78125 1224.410156 1984.46875 1222.699219 2003.898438 1215.839844 C 2033.28125 1205.339844 2051.589844 1202.980469 2065.820312 1207.910156 C 2080.519531 1213.058594 2084.128906 1212.410156 2109.671875 1199.980469 C 2123.679688 1193.121094 2141.078125 1186.46875 2153.289062 1183.691406 C 2177.699219 1177.898438 2195.550781 1169.109375 2207.980469 1157.109375 C 2212.949219 1152.179688 2228.769531 1135.03125 2243.230469 1119.160156 C 2269 1090.660156 2280.980469 1073.71875 2277.808594 1070.71875 C 2276.910156 1069.859375 2259.730469 1064.929688 2239.390625 1060 C 2160.070312 1040.5 2125.261719 1021.210938 2106.730469 986.269531 C 2101.078125 975.761719 2092.039062 963.550781 2081.871094 953.261719 C 2073.28125 944.25 2066.050781 935.25 2066.050781 932.890625 C 2066.050781 930.75 2069.671875 924.75 2073.960938 919.820312 C 2086.621094 905.460938 2085.488281 901.601562 2061.308594 878.019531 C 2023.558594 840.929688 2007.519531 833.859375 1958.699219 832.789062 C 1941.300781 832.359375 1923.21875 833 1918.46875 834.070312 Z M 1918.46875 834.070312 "/>
<path fill-rule="nonzero" fill="rgb(0%, 0%, 0%)" fill-opacity="1" d="M 767 856.800781 C 752.308594 863.660156 738.523438 879.308594 725.867188 903.738281 C 715.472656 923.460938 715.019531 927.75 721.574219 940.609375 C 725.640625 948.75 725.867188 950.898438 723.609375 962.039062 C 722.25 968.898438 717.503906 985.410156 713.210938 998.480469 C 693.097656 1060 690.160156 1121.308594 707.5625 1115.949219 C 713.4375 1114.230469 736.714844 1120.671875 755.023438 1129.449219 C 778.75 1140.601562 789.824219 1151.75 794.796875 1169.320312 C 797.058594 1177.039062 800.671875 1184.761719 802.707031 1186.691406 C 808.132812 1191.398438 830.957031 1192.898438 859.886719 1190.328125 C 889.265625 1187.96875 892.882812 1185.621094 899.660156 1164.390625 C 905.3125 1146.601562 918.195312 1127.308594 932.207031 1115.519531 C 948.027344 1102.441406 956.386719 1099.230469 970.851562 1100.941406 C 990.742188 1103.308594 1006.339844 1097.941406 1021.929688 1083.160156 C 1035.039062 1070.511719 1044.53125 1052.710938 1044.53125 1040.289062 C 1044.53125 1022.921875 1057.859375 992.480469 1086.109375 945.109375 C 1095.609375 929.039062 1103.289062 915.101562 1103.289062 913.820312 C 1103.289062 910.601562 1077.75 874.371094 1072.101562 869.660156 C 1066.898438 865.371094 1066.898438 865.371094 1041.140625 875.660156 C 1024.640625 882.308594 1014.46875 882.519531 998.875 876.730469 C 984.414062 871.371094 974.242188 872.230469 955.257812 880.589844 C 943.054688 885.730469 939.210938 886.378906 917.96875 886.378906 C 889.039062 886.378906 871.410156 882.089844 830.957031 864.941406 C 795.023438 849.941406 783.949219 848.441406 767 856.800781 Z M 767 856.800781 "/>
<path fill-rule="nonzero" fill="rgb(0%, 0%, 0%)" fill-opacity="1" d="M 34.757812 859.578125 C 27.074219 861.730469 19.84375 864.089844 19.164062 864.941406 C 18.484375 865.589844 33.628906 866.230469 53.0625 866.230469 C 72.726562 866.230469 88.546875 865.589844 88.546875 864.519531 C 88.546875 856.578125 56.226562 853.578125 34.757812 859.578125 Z M 34.757812 859.578125 "/>
<path fill-rule="nonzero" fill="rgb(0%, 0%, 0%)" fill-opacity="1" d="M 70.691406 897.308594 C 56.226562 900.308594 18.484375 913.601562 18.484375 915.53125 C 18.484375 916.171875 26.394531 920.460938 35.886719 924.960938 C 71.820312 941.679688 91.710938 936.75 107.757812 907.171875 C 111.597656 900.101562 111.597656 899.671875 107.53125 896.878906 C 102.558594 893.449219 89.449219 893.449219 70.691406 897.308594 Z M 70.691406 897.308594 "/>
<path fill-rule="nonzero" fill="rgb(0%, 0%, 0%)" fill-opacity="1" d="M 123.351562 909.101562 C 113.859375 913.601562 72.726562 948.539062 72.726562 952.398438 C 72.726562 953.898438 111.371094 1003.199219 126.289062 1020.351562 C 126.738281 1020.988281 135.328125 1013.488281 145.722656 1003.839844 C 165.839844 985.410156 173.296875 981.769531 183.015625 986.480469 C 193.636719 991.621094 218.269531 1016.699219 222.789062 1026.988281 C 230.472656 1044.789062 231.832031 1046.5 242.226562 1053.789062 C 251.71875 1060.429688 257.820312 1068.578125 261.210938 1078.871094 C 262.113281 1081.648438 264.828125 1082.730469 270.476562 1082.730469 C 280.421875 1082.730469 288.554688 1078.871094 297.597656 1069.859375 C 303.699219 1063.859375 304.375 1061.5 305.054688 1046.289062 C 306.410156 1020.78125 299.855469 978.121094 289.6875 947.46875 C 284.261719 930.75 276.804688 914.03125 273.867188 912.320312 C 272.738281 911.671875 262.113281 913.601562 250.136719 916.601562 C 222.5625 923.25 214.429688 923.25 201.546875 916.390625 C 180.078125 904.808594 140.527344 900.949219 123.351562 909.101562 Z M 123.351562 909.101562 "/>
<path fill-rule="nonzero" fill="rgb(0%, 0%, 0%)" fill-opacity="1" d="M 668.011719 928.390625 C 657.164062 937.820312 644.507812 947.679688 639.761719 950.25 C 629.140625 955.828125 628.6875 959.261719 636.824219 980.480469 C 646.992188 1007.058594 651.0625 1026.988281 653.546875 1060.21875 C 656.257812 1097.300781 660.101562 1115.730469 666.65625 1121.949219 C 670.722656 1125.808594 671.851562 1126.019531 675.242188 1123.238281 C 682.023438 1117.878906 685.1875 1106.949219 687.449219 1080.578125 C 689.933594 1050.789062 694.90625 1028.5 707.5625 988.621094 C 712.757812 972.761719 716.828125 957.109375 716.828125 953.679688 C 716.828125 946.820312 712.757812 938.460938 702.816406 924.75 C 691.289062 908.671875 690.160156 908.890625 668.011719 928.390625 Z M 668.011719 928.390625 "/>
<path fill-rule="nonzero" fill="rgb(0%, 0%, 0%)" fill-opacity="1" d="M 2088.199219 914.671875 C 2074.859375 921.320312 2073.511719 935.039062 2085.039062 946.398438 C 2094.070312 955.609375 2101.308594 956.261719 2111.019531 948.75 C 2122.78125 939.320312 2125.039062 924.53125 2116.21875 914.890625 C 2111.929688 910.390625 2096.789062 910.171875 2088.199219 914.671875 Z M 2088.199219 914.671875 "/>
<path fill-rule="nonzero" fill="rgb(0%, 0%, 0%)" fill-opacity="1" d="M 2377.710938 934.820312 C 2353.75 946.398438 2299.511719 960.96875 2232.839844 973.191406 C 2213.179688 976.839844 2193.289062 979.839844 2188.320312 979.839844 C 2169.328125 979.839844 2138.601562 964.191406 2132.039062 951.328125 C 2128.199219 944.039062 2125.941406 944.039062 2117.808594 951.75 C 2107.410156 961.828125 2109.441406 978.550781 2123.679688 998.058594 C 2140.179688 1020.78125 2166.390625 1033.429688 2229.898438 1049.289062 C 2282.789062 1062.359375 2290.238281 1067.511719 2281.199219 1083.371094 C 2275.78125 1093.230469 2234.648438 1139.738281 2212.269531 1161.609375 C 2194.191406 1179.179688 2184.480469 1184.539062 2159.839844 1189.898438 C 2131.589844 1196.328125 2113.058594 1205.339844 2094.300781 1222.269531 C 2076.449219 1238.558594 2062.660156 1258.929688 2054.519531 1281 C 2050 1293.429688 2049.101562 1300.078125 2049.101562 1319.589844 C 2049.328125 1340.160156 2050.460938 1346.808594 2057.910156 1372.75 C 2062.660156 1389.039062 2066.050781 1402.75 2065.601562 1403.398438 C 2063.789062 1404.898438 2050.910156 1376.179688 2046.609375 1361.171875 C 2041.191406 1342.519531 2041.421875 1303.511719 2046.609375 1283.140625 C 2048.878906 1274.789062 2056.109375 1258.28125 2062.890625 1246.28125 C 2069.671875 1234.269531 2075.089844 1223.339844 2075.089844 1222.269531 C 2075.089844 1220.980469 2071.929688 1218.410156 2067.859375 1216.480469 C 2057.460938 1211.339844 2035.539062 1213.691406 2006.160156 1222.910156 C 1973.390625 1233.421875 1966.839844 1233.199219 1939.488281 1220.121094 C 1927.289062 1214.339844 1909.210938 1204.691406 1899.488281 1198.691406 C 1889.769531 1192.898438 1879.148438 1187.121094 1875.980469 1186.039062 C 1859.941406 1180.039062 1810.671875 1199.761719 1810.671875 1211.980469 C 1810.671875 1213.691406 1813.609375 1221.199219 1817.449219 1228.699219 C 1825.808594 1246.28125 1835.53125 1278 1835.53125 1288.71875 C 1835.53125 1294.289062 1831.910156 1303.511719 1823.328125 1318.941406 C 1812.25 1339.089844 1797.339844 1373.390625 1793.71875 1387.320312 C 1792.359375 1392.46875 1793.5 1393.320312 1820.160156 1405.109375 C 1853.378906 1419.898438 1916.210938 1451.410156 1930 1460.421875 C 1937 1465.128906 1941.300781 1470.058594 1945.371094 1478.851562 C 1948.53125 1485.5 1957.121094 1501.140625 1964.800781 1513.148438 L 1978.589844 1535.441406 L 1987.859375 1517.429688 C 2000.511719 1493 2013.839844 1476.710938 2070.570312 1414.96875 C 2087.289062 1396.539062 2108.539062 1372.960938 2117.578125 1362.238281 C 2135.210938 1341.230469 2163.910156 1315.941406 2214.078125 1277.359375 C 2270.808594 1233.199219 2275.101562 1227.628906 2343.578125 1102.871094 C 2403.921875 993.121094 2406.628906 984.121094 2394.878906 933.109375 C 2393.300781 927.320312 2393.070312 927.320312 2377.710938 934.820312 Z M 2377.710938 934.820312 "/>
<path fill-rule="nonzero" fill="rgb(0%, 0%, 0%)" fill-opacity="1" d="M 599.984375 957.539062 C 599.308594 959.261719 600.890625 980.269531 603.601562 1004.058594 C 610.832031 1067.289062 619.648438 1101.589844 633.207031 1122.171875 C 646.316406 1141.671875 650.382812 1133.960938 648.347656 1093.660156 C 645.863281 1048.429688 636.371094 1000.199219 625.296875 976.621094 C 616.933594 958.609375 603.601562 948.539062 599.984375 957.539062 Z M 599.984375 957.539062 "/>
<path fill-rule="nonzero" fill="rgb(0%, 0%, 0%)" fill-opacity="1" d="M 1111.160156 920.21875 C 1110.410156 920.171875 1109.671875 921.019531 1108.488281 922.390625 C 1102.390625 929.679688 1070.738281 986.050781 1063.960938 1001.699219 C 1059.671875 1011.558594 1055.148438 1026.78125 1053.789062 1035.570312 C 1048.589844 1067.078125 1030.519531 1092.160156 1004.300781 1103.730469 C 993.679688 1108.449219 988.253906 1109.519531 972.207031 1109.519531 C 956.164062 1109.519531 951.640625 1110.378906 944.632812 1114.449219 C 927.683594 1124.519531 911.640625 1148.75 906.441406 1172.539062 C 902.824219 1188.828125 905.085938 1195.691406 919.097656 1211.769531 C 933.109375 1227.839844 942.828125 1245.640625 942.828125 1255.5 C 942.828125 1266.859375 948.703125 1271.359375 966.558594 1273.5 C 991.191406 1276.710938 1131.769531 1282.070312 1139 1280.140625 C 1158.660156 1274.789062 1170.179688 1263 1173.121094 1245.628906 C 1176.058594 1228.269531 1177.191406 1227.839844 1216.738281 1226.339844 C 1235.730469 1225.699219 1252.679688 1224.410156 1254.03125 1223.558594 C 1256.070312 1222.269531 1256.519531 1218.199219 1255.390625 1209.191406 C 1254.03125 1196.328125 1254.03125 1196.328125 1262.839844 1188.398438 C 1267.589844 1184.109375 1275.949219 1178.75 1281.148438 1176.609375 C 1293.128906 1171.679688 1298.78125 1172.75 1332.910156 1187.980469 C 1366.359375 1202.769531 1372 1203.191406 1411.78125 1192.46875 C 1453.359375 1181.328125 1470.769531 1177.679688 1496.75 1174.898438 C 1536.308594 1170.609375 1555.058594 1163.320312 1552.128906 1152.820312 C 1551.441406 1149.820312 1539.019531 1135.460938 1524.558594 1121.089844 C 1510.089844 1106.730469 1495.398438 1089.800781 1491.789062 1083.800781 C 1487.039062 1075.871094 1481.839844 1070.929688 1472.570312 1065.578125 C 1446.128906 1050.140625 1440.710938 1043.070312 1431.21875 1010.921875 C 1423.980469 987.339844 1413.808594 967.191406 1407.261719 964.398438 C 1399.351562 960.96875 1379.230469 970.621094 1339.910156 997.199219 C 1320.929688 1010.058594 1296.519531 1025.488281 1285.21875 1031.710938 C 1274.140625 1037.929688 1258.78125 1047.789062 1251.320312 1053.570312 C 1232.789062 1067.71875 1210.640625 1077.371094 1179.898438 1084.660156 C 1138.769531 1094.300781 1130.410156 1100.089844 1114.808594 1128.601562 C 1108.261719 1140.601562 1107.359375 1144.03125 1108.710938 1151.75 C 1111.199219 1166.109375 1139.679688 1219.058594 1152.78125 1233.851562 C 1163.628906 1245.640625 1167.46875 1254.210938 1162.050781 1254.210938 C 1155.941406 1254.210938 1123.859375 1205.769531 1108.039062 1172.96875 C 1101.710938 1159.890625 1100.578125 1155.390625 1101.480469 1146.179688 C 1102.839844 1132.671875 1112.101562 1113.589844 1123.859375 1100.730469 C 1129.730469 1094.300781 1132.671875 1088.941406 1132.671875 1084.871094 C 1132.671875 1077.789062 1120.238281 1054.21875 1103.058594 1028.929688 C 1091.761719 1012.421875 1091.539062 1011.769531 1095.378906 1007.699219 C 1097.640625 1005.339844 1104.640625 1000.628906 1111.199219 997.199219 C 1134.480469 984.769531 1135.828125 969.550781 1117.070312 929.890625 C 1113.679688 922.929688 1112.410156 920.308594 1111.160156 920.21875 Z M 1111.160156 920.21875 "/>
<path fill-rule="nonzero" fill="rgb(0%, 0%, 0%)" fill-opacity="1" d="M 311.382812 994.199219 C 312.511719 1003.410156 313.417969 1021.421875 313.191406 1034.5 C 313.191406 1055.289062 312.511719 1059.570312 306.863281 1071.789062 C 295.335938 1096.871094 296.464844 1114.878906 310.480469 1131.378906 C 320.421875 1143.171875 325.847656 1155.179688 325.847656 1166.320312 C 325.847656 1181.328125 322.230469 1183.46875 320.421875 1169.539062 C 318.613281 1155.390625 315 1147.460938 303.246094 1134.171875 C 290.363281 1119.378906 289.007812 1115.949219 290.816406 1101.808594 L 292.398438 1089.371094 L 275.902344 1089.800781 L 259.402344 1090.230469 L 251.945312 1077.371094 C 239.964844 1056.789062 221.886719 1045.859375 218.042969 1056.359375 C 213.074219 1070.941406 191.828125 1102.019531 188.890625 1099.441406 C 188.4375 1098.800781 192.957031 1088.941406 199.058594 1077.148438 C 220.304688 1036.210938 220.757812 1031.28125 203.804688 1011.988281 C 192.957031 999.769531 181.882812 992.691406 173.523438 992.691406 C 160.414062 992.691406 133.292969 1025.28125 132.84375 1041.789062 C 132.617188 1053.789062 144.820312 1069.648438 181.207031 1104.160156 C 213.75 1135.03125 256.464844 1167.820312 276.804688 1177.679688 C 283.585938 1180.898438 297.824219 1185.621094 308.445312 1188.191406 L 327.65625 1192.898438 L 379.183594 1180.679688 C 439.523438 1166.320312 461.898438 1163.109375 476.363281 1166.539062 C 482.011719 1168.039062 487.210938 1168.46875 487.890625 1167.609375 C 488.792969 1166.75 488.113281 1161.179688 486.757812 1154.960938 C 476.136719 1111.449219 475.910156 1103.730469 483.367188 1058.070312 C 488.113281 1029.140625 486.757812 1010.699219 479.527344 1005.128906 C 474.78125 1001.480469 471.84375 1001.058594 456.925781 1002.339844 C 441.558594 1003.410156 439.074219 1003.199219 429.808594 998.269531 C 401.78125 983.480469 397.488281 982.191406 372.175781 979.839844 C 358.617188 978.769531 338.730469 977.691406 328.332031 977.691406 L 309.574219 977.691406 Z M 311.382812 994.199219 "/>
<path fill-rule="nonzero" fill="rgb(0%, 0%, 0%)" fill-opacity="1" d="M 1535.179688 1176.398438 C 1530.878906 1178.109375 1514.609375 1180.898438 1499.019531 1182.828125 C 1473.25 1185.828125 1442.058594 1192.480469 1394.828125 1204.910156 C 1372.910156 1210.691406 1365.679688 1209.839844 1332.679688 1196.121094 C 1313.019531 1187.96875 1302.171875 1184.761719 1291.769531 1183.898438 C 1278.210938 1183.039062 1277.308594 1183.261719 1270.75 1189.46875 C 1264.429688 1195.480469 1263.75 1197.191406 1263.75 1210.050781 C 1263.75 1228.910156 1260.808594 1241.351562 1248.609375 1275.640625 C 1238.890625 1302.441406 1238.210938 1306.300781 1237.761719 1328.160156 C 1237.308594 1356.03125 1236.628906 1357.960938 1209.730469 1401.039062 C 1189.851562 1432.550781 1183.75 1444.558594 1175.839844 1466.851562 C 1170.179688 1483.140625 1153.011719 1507.359375 1139.679688 1518.289062 C 1134.699219 1522.359375 1125.210938 1528.578125 1118.660156 1532.011719 C 1107.359375 1537.800781 1105.320312 1538.230469 1079.558594 1538.230469 C 1056.28125 1538.230469 1050.859375 1539.089844 1041.359375 1543.160156 C 1027.808594 1548.941406 1031.191406 1544.019531 1046.558594 1535.441406 C 1056.058594 1530.078125 1058.769531 1529.648438 1077.75 1530.078125 C 1105.550781 1530.941406 1118.878906 1526.21875 1138.089844 1509.070312 C 1153.460938 1495.570312 1164.988281 1476.488281 1172.21875 1453.128906 C 1174.25 1446.480469 1184.421875 1427.191406 1195.039062 1410.261719 C 1228.488281 1357.308594 1228.488281 1357.53125 1228.941406 1329.871094 C 1229.621094 1303.71875 1234.820312 1285.070312 1250.871094 1251.421875 L 1259 1234.921875 L 1230.300781 1234.921875 C 1195.269531 1234.921875 1185.328125 1237.058594 1183.289062 1245.210938 C 1180.578125 1255.710938 1173.800781 1266.429688 1163.410156 1276.070312 C 1148.941406 1290 1141.261719 1291.289062 1101.03125 1287.429688 C 1083.179688 1285.71875 1067.128906 1285.070312 1065.550781 1286.148438 C 1063.058594 1287.21875 1067.128906 1292.578125 1080.691406 1306.941406 C 1090.628906 1317.441406 1099.441406 1328.371094 1100.351562 1330.949219 C 1101.03125 1334.160156 1099.898438 1339.089844 1096.730469 1344.449219 C 1090.628906 1354.53125 1091.539062 1359.671875 1102.378906 1382.609375 C 1112.101562 1402.75 1112.101562 1408.761719 1101.929688 1424.191406 C 1091.089844 1440.691406 1085.660156 1443.058594 1063.289062 1441.339844 C 1042.941406 1440.058594 1032.320312 1442.410156 1021.929688 1450.769531 C 1016.050781 1455.269531 1015.148438 1457.628906 1015.148438 1466.628906 C 1015.148438 1475.640625 1014.019531 1478.210938 1007.238281 1485.5 C 1002.941406 1490 999.328125 1494.929688 999.328125 1496.210938 C 999.328125 1497.5 1003.171875 1506.070312 1008.140625 1515.289062 C 1012.890625 1524.289062 1020.570312 1542.941406 1025.320312 1556.449219 C 1037.96875 1593.75 1040.691406 1600.609375 1054.46875 1626.96875 L 1067.128906 1651.40625 L 1066.898438 1676.269531 C 1066.679688 1705.421875 1068.261719 1714.210938 1080.691406 1750.222656 L 1089.949219 1777.015625 L 1074.128906 1805.527344 C 1040.910156 1865.546875 1013.789062 1936.496094 1012.441406 1966.71875 C 1011.53125 1983.226562 1014.25 1984.511719 1059.671875 1986.011719 C 1213.351562 1991.15625 1263.519531 1995.445312 1308.949219 2007.875 C 1324.089844 2011.949219 1339.011719 2011.089844 1389.179688 2003.375 C 1434.828125 1996.300781 1456.75 1996.085938 1475.511719 2002.089844 C 1486.589844 2005.519531 1494.949219 2006.589844 1513.929688 2006.589844 C 1548.289062 2006.375 1551 2005.089844 1593.710938 1964.148438 L 1628.738281 1930.496094 L 1678.011719 1903.699219 C 1705.128906 1889.125 1732.699219 1872.40625 1739.25 1866.832031 C 1762.308594 1847.324219 1767.28125 1826.960938 1763.210938 1766.941406 C 1760.050781 1719.570312 1757.109375 1712.28125 1733.609375 1694.0625 C 1714.621094 1679.273438 1692.929688 1666.625 1681.171875 1663.195312 C 1673.488281 1661.050781 1670.101562 1661.480469 1653.820312 1666.410156 C 1628.519531 1674.34375 1615.179688 1682.488281 1611.789062 1692.5625 C 1607.5 1704.996094 1607.5 1776.589844 1611.789062 1784.519531 C 1613.601562 1788.164062 1622.640625 1795.878906 1631.679688 1802.097656 C 1653.601562 1816.886719 1661.730469 1824.390625 1659.699219 1828.035156 C 1655.628906 1834.679688 1633.941406 1847.96875 1626.710938 1847.96875 C 1617.660156 1847.96875 1612.691406 1844.753906 1589.191406 1823.316406 C 1565.011719 1801.238281 1559.578125 1798.023438 1546.480469 1797.378906 C 1540.601562 1797.167969 1529.070312 1794.378906 1521.160156 1791.164062 C 1500.371094 1782.804688 1478.898438 1777.230469 1468.058594 1777.230469 C 1453.359375 1777.230469 1449.300781 1781.734375 1447.039062 1800.808594 C 1445.910156 1809.597656 1444.101562 1819.460938 1442.738281 1822.460938 C 1439.128906 1831.25 1427.601562 1838.964844 1416.300781 1840.25 C 1410.648438 1840.894531 1401.609375 1841.964844 1396.179688 1842.609375 C 1376.75 1844.96875 1371.320312 1857.613281 1371.320312 1900.484375 C 1371.550781 1936.925781 1374.941406 1948.929688 1392.121094 1972.292969 C 1405.679688 1990.300781 1407.941406 1999.515625 1395.730469 1986.226562 C 1384.210938 1973.578125 1372.460938 1956.429688 1368.390625 1946.140625 C 1360.019531 1924.492188 1360.929688 1871.117188 1369.96875 1853.113281 C 1376.519531 1840.464844 1385.789062 1835.535156 1406.359375 1833.820312 C 1426.921875 1832.105469 1430.539062 1830.390625 1434.609375 1820.746094 C 1439.351562 1810.242188 1441.609375 1769.945312 1437.769531 1767.585938 C 1436.191406 1766.726562 1424.890625 1765.226562 1412.460938 1764.371094 C 1392.800781 1763.085938 1389.410156 1762.226562 1384.890625 1757.726562 C 1373.359375 1746.363281 1364.769531 1711.425781 1362.058594 1664.054688 C 1360.699219 1641.332031 1359.800781 1636.828125 1355.5 1632.328125 C 1349.859375 1625.898438 1324.539062 1618.609375 1308.5 1618.609375 C 1296.96875 1618.609375 1297.878906 1617.75 1283.410156 1638.757812 C 1274.140625 1652.476562 1260.808594 1659.335938 1243.859375 1659.335938 C 1227.140625 1659.335938 1217.640625 1654.40625 1207.25 1640.6875 C 1199.339844 1630.183594 1195.269531 1621.398438 1184.191406 1591.820312 L 1181.03125 1583.238281 L 1116.851562 1581.101562 C 1055.378906 1578.949219 1053.570312 1578.738281 1078.429688 1577.238281 C 1092.671875 1576.378906 1121.820312 1575.519531 1143.289062 1575.101562 L 1181.941406 1574.671875 L 1198.660156 1606.390625 C 1207.699219 1623.75 1218.101562 1640.6875 1221.488281 1643.902344 C 1227.140625 1649.046875 1229.621094 1649.691406 1241.828125 1649.476562 C 1264.878906 1649.261719 1271.660156 1646.046875 1278.890625 1631.898438 C 1287.25 1616.039062 1294.480469 1611.109375 1309.628906 1611.53125 C 1322.28125 1611.75 1346.460938 1617.109375 1357.988281 1622.25 C 1367.03125 1626.113281 1369.96875 1634.042969 1369.96875 1653.765625 C 1370.191406 1690.203125 1379.691406 1742.078125 1388.269531 1752.367188 C 1392.570312 1757.511719 1393.699219 1757.726562 1415.851562 1757.296875 C 1436.871094 1756.867188 1439.578125 1757.296875 1445.910156 1761.796875 C 1450.648438 1765.226562 1458.339844 1767.371094 1469.640625 1768.871094 C 1478.898438 1770.15625 1493.589844 1773.585938 1502.179688 1776.589844 C 1510.988281 1779.589844 1523.421875 1783.875 1530.199219 1786.234375 C 1536.980469 1788.59375 1544.890625 1789.878906 1547.828125 1789.019531 C 1556.191406 1787.09375 1566.140625 1793.308594 1590.550781 1816.03125 C 1619.019531 1842.394531 1622.191406 1843.679688 1638.910156 1835.75 C 1645.691406 1832.320312 1651.339844 1828.246094 1651.339844 1826.53125 C 1651.339844 1824.816406 1644.328125 1818.816406 1635.519531 1813.242188 C 1605.910156 1794.164062 1598.230469 1781.734375 1598.230469 1753.652344 C 1598.230469 1736.933594 1602.300781 1700.921875 1605.011719 1692.992188 C 1611.109375 1675.199219 1636.199219 1658.910156 1661.511719 1655.90625 C 1668.289062 1655.265625 1674.621094 1653.550781 1675.519531 1652.261719 C 1677.328125 1649.476562 1673.039062 1638.332031 1661.730469 1616.890625 C 1647.71875 1590.53125 1639.359375 1569.089844 1636.648438 1552.808594 C 1631.898438 1525.789062 1629.421875 1515.078125 1625.128906 1505.429688 C 1619.019531 1492.140625 1619.019531 1483.140625 1624.898438 1476.070312 C 1631 1468.78125 1631.230469 1464.269531 1625.351562 1455.269531 C 1619.929688 1446.699219 1619.699219 1440.269531 1624.441406 1427.191406 C 1628.96875 1414.121094 1640.71875 1404.261719 1651.339844 1404.261719 C 1661.058594 1404.261719 1661.511719 1400.609375 1654.730469 1382.179688 C 1646.589844 1360.53125 1647.949219 1353.03125 1666.929688 1317.019531 C 1691.570312 1270.070312 1695.410156 1253.351562 1685.238281 1234.699219 C 1677.328125 1220.339844 1646.820312 1198.480469 1634.390625 1198.480469 C 1631.230469 1198.480469 1621.28125 1201.050781 1612.238281 1204.050781 C 1592.128906 1211.121094 1588.738281 1210.050781 1572.238281 1192.050781 C 1560.261719 1179.179688 1551.449219 1172.75 1546.25 1172.96875 C 1544.441406 1172.96875 1539.46875 1174.46875 1535.179688 1176.398438 Z M 1535.179688 1176.398438 "/>
<path fill-rule="nonzero" fill="rgb(0%, 0%, 0%)" fill-opacity="1" d="M 1729.988281 1225.269531 C 1717.328125 1226.980469 1705.128906 1229.128906 1702.871094 1230.410156 C 1699.480469 1232.128906 1698.800781 1235.558594 1698.800781 1252.710938 L 1698.800781 1272.859375 L 1678.460938 1311.011719 C 1660.609375 1344.660156 1658.351562 1350.449219 1658.351562 1360.53125 C 1658.351562 1373.820312 1670.101562 1398.039062 1680.039062 1404.898438 L 1686.371094 1409.398438 L 1701.511719 1403.398438 C 1710.101562 1399.96875 1729.089844 1395.039062 1743.769531 1392.25 C 1779.929688 1385.390625 1785.808594 1382.390625 1791.011719 1368.890625 C 1793.269531 1362.890625 1801.859375 1344.660156 1810.21875 1328.160156 C 1824.460938 1300.078125 1825.359375 1297.289062 1825.128906 1284.21875 C 1824.910156 1269 1813.160156 1231.269531 1807.058594 1225.269531 C 1802.761719 1221.199219 1764.109375 1221.199219 1729.988281 1225.269531 Z M 1729.988281 1225.269531 "/>
<path fill-rule="nonzero" fill="rgb(0%, 0%, 0%)" fill-opacity="1" d="M 958.875 1284.429688 C 953 1285.070312 947.574219 1287.21875 945.992188 1289.578125 C 941.925781 1294.71875 941.925781 1303.71875 945.765625 1308.660156 C 952.09375 1316.800781 985.542969 1316.800781 991.871094 1308.660156 C 995.710938 1303.71875 995.710938 1294.71875 991.871094 1289.789062 C 988.253906 1285.070312 972.886719 1282.5 958.875 1284.429688 Z M 958.875 1284.429688 "/>
<path fill-rule="nonzero" fill="rgb(0%, 0%, 0%)" fill-opacity="1" d="M 1016.5 1284.429688 C 1006.339844 1285.929688 1003.851562 1288.929688 1003.851562 1299.648438 C 1003.851562 1308.660156 1000.230469 1318.730469 996.390625 1321.089844 C 994.808594 1321.941406 985.996094 1322.800781 976.726562 1322.800781 C 952.09375 1323.019531 942.828125 1325.160156 938.082031 1331.371094 C 931.527344 1339.519531 922.261719 1377.25 922.035156 1395.039062 C 922.035156 1418.398438 930.398438 1433.839844 960.90625 1465.128906 C 972.433594 1477.140625 987.125 1487.859375 991.871094 1487.859375 C 993.679688 1487.859375 997.519531 1485.5 1000.460938 1482.5 C 1004.980469 1478.421875 1006.109375 1475.210938 1006.109375 1466.199219 C 1006.109375 1456.339844 1007.011719 1454.410156 1014.019531 1447.980469 C 1018.308594 1444.121094 1027.808594 1438.980469 1034.808594 1436.410156 C 1045.878906 1432.550781 1050.628906 1431.910156 1065.550781 1433.191406 C 1085.890625 1434.910156 1092.441406 1432.339844 1097.859375 1420.328125 C 1103.289062 1407.898438 1102.839844 1405.328125 1087.46875 1367.390625 C 1082.71875 1356.03125 1082.71875 1354.949219 1086.109375 1348.308594 C 1088.140625 1344.449219 1089.730469 1338.878906 1089.730469 1335.660156 C 1089.730469 1327.730469 1077.519531 1311.011719 1064.191406 1300.941406 C 1044.300781 1286.148438 1032.101562 1281.859375 1016.5 1284.429688 Z M 1016.5 1284.429688 "/>
<path fill-rule="nonzero" fill="rgb(0%, 0%, 0%)" fill-opacity="1" d="M 1747.390625 1399.109375 C 1716.878906 1404.261719 1701.511719 1412.398438 1692.699219 1428.480469 C 1690.210938 1433.410156 1686.140625 1447.558594 1683.878906 1459.988281 C 1678.691406 1489.140625 1677.328125 1492.359375 1662.871094 1506.929688 C 1648.179688 1521.511719 1645.691406 1526.648438 1645.691406 1544.441406 C 1645.691406 1579.601562 1678.011719 1637.472656 1717.328125 1672.199219 C 1743.101562 1695.132812 1764.789062 1706.496094 1782.871094 1706.496094 C 1797.558594 1706.496094 1815.421875 1727.929688 1821.96875 1753.652344 C 1824.910156 1765.011719 1826.941406 1768.441406 1833.039062 1772.300781 C 1842.988281 1778.730469 1859.039062 1781.519531 1884.800781 1781.519531 C 1913.050781 1781.304688 1932.261719 1777.875 1976.101562 1765.441406 C 2032.148438 1749.578125 2027.179688 1756.4375 1969.101562 1775.089844 C 1922.320312 1790.09375 1901.96875 1792.449219 1859.039062 1787.734375 C 1847.511719 1786.449219 1835.308594 1786.019531 1831.910156 1786.664062 C 1824.460938 1788.59375 1819.710938 1799.09375 1818.128906 1817.746094 C 1816.550781 1834.679688 1818.128906 1838.324219 1836.210938 1859.113281 C 1868.070312 1895.984375 1871.011719 1930.28125 1844.800781 1953.644531 C 1831.230469 1965.648438 1819.941406 1968.433594 1811.121094 1962.21875 C 1802.980469 1956.429688 1799.601562 1946.570312 1799.601562 1927.277344 C 1799.371094 1904.773438 1797.558594 1902.628906 1765.921875 1884.195312 L 1747.160156 1873.261719 L 1707.160156 1895.125 C 1665.808594 1917.847656 1647.949219 1929.636719 1647.949219 1934.78125 C 1647.949219 1936.710938 1651.789062 1938.210938 1658.800781 1939.070312 C 1697.671875 1944.214844 1746.039062 1972.292969 1759.820312 1998.230469 C 1767.5 2012.378906 1767.28125 2028.882812 1758.921875 2060.179688 C 1746.261719 2107.121094 1724.339844 2156.207031 1709.191406 2171 L 1701.058594 2178.929688 L 1701.289062 2205.9375 C 1701.96875 2244.953125 1711.460938 2330.691406 1716.648438 2343.339844 C 1717.558594 2345.054688 1715.75 2349.769531 1712.808594 2354.058594 C 1706.480469 2363.058594 1695.640625 2364.773438 1682.53125 2358.558594 C 1656.539062 2345.910156 1656.539062 2323.191406 1682.75 2308.828125 C 1703.089844 2297.898438 1703.320312 2297.253906 1697.890625 2262.3125 C 1695.410156 2246.023438 1692.699219 2223.515625 1692.019531 2212.371094 C 1691.121094 2201.222656 1689.539062 2190.503906 1688.398438 2188.578125 C 1685.921875 2184.074219 1677.558594 2181.074219 1660.609375 2178.074219 C 1638 2174.429688 1623.089844 2175.285156 1610.429688 2181.289062 C 1593.941406 2189.003906 1553.710938 2222.230469 1543.539062 2236.164062 C 1537.210938 2244.953125 1531.109375 2250.308594 1520.261719 2256.3125 C 1505.121094 2264.886719 1497.210938 2272.601562 1492.230469 2284.820312 C 1488.171875 2294.039062 1475.96875 2303.898438 1466.019531 2305.828125 C 1455.628906 2307.542969 1445.449219 2305.613281 1426.691406 2298.109375 C 1400.710938 2287.609375 1390.308594 2289.964844 1387.140625 2307.328125 C 1385.109375 2318.261719 1370.648438 2332.835938 1355.28125 2339.910156 C 1341.488281 2346.125 1322.511719 2347.199219 1318.210938 2342.269531 C 1316.628906 2340.554688 1314.601562 2327.90625 1313.46875 2314.1875 C 1311.210938 2286.964844 1306.910156 2275.605469 1300.808594 2281.175781 C 1296.289062 2285.679688 1293.128906 2318.046875 1293.128906 2361.988281 L 1293.128906 2401.214844 L 1271.210938 2411.074219 C 1240.691406 2424.578125 1235.730469 2424.792969 1210.410156 2414.078125 C 1188.941406 2405.074219 1174.25 2402.714844 1171.988281 2408.289062 C 1170.410156 2411.933594 1174.929688 2420.292969 1187.808594 2438.726562 C 1193.238281 2446.230469 1198.890625 2456.734375 1200.238281 2461.664062 C 1201.601562 2466.808594 1209.058594 2480.953125 1216.960938 2493.386719 C 1224.878906 2505.605469 1232.109375 2517.609375 1233.011719 2519.96875 C 1237.078125 2529.398438 1238.210938 2541.402344 1236.398438 2558.121094 C 1235.269531 2568.839844 1235.5 2578.699219 1236.859375 2583.628906 C 1239.570312 2593.703125 1268.941406 2623.070312 1278.441406 2625.214844 C 1282.511719 2626.285156 1292.898438 2625 1306.691406 2622 C 1380.359375 2605.707031 1397.320312 2603.992188 1424.210938 2610.210938 C 1449.300781 2615.996094 1461.5 2614.925781 1485.679688 2604.851562 C 1497.429688 2599.921875 1515.738281 2589.632812 1527.488281 2581.488281 C 1583.308594 2542.472656 1656.539062 2471.738281 1683.878906 2430.796875 C 1689.078125 2422.652344 1702.191406 2408.289062 1713.71875 2398 C 1736.769531 2377.421875 1735.859375 2381.066406 1728.628906 2351.054688 C 1723.890625 2330.90625 1726.820312 2315.257812 1738.128906 2299.824219 C 1745.128906 2290.394531 1749.878906 2286.964844 1770.21875 2276.675781 C 1822.648438 2250.308594 1837.109375 2232.734375 1835.078125 2197.792969 C 1834.179688 2183.644531 1832.371094 2177.644531 1823.328125 2158.566406 C 1817.449219 2146.347656 1811.121094 2132.203125 1809.089844 2127.058594 C 1805.929688 2118.484375 1805.929688 2117.625 1811.351562 2108.835938 C 1814.511719 2103.90625 1824.460938 2091.6875 1833.269531 2081.613281 C 1862.429688 2049.03125 1876.210938 2031.882812 1880.5 2023.953125 C 1885.929688 2014.09375 1896.78125 2006.804688 1934.96875 1987.296875 C 1971.359375 1968.863281 1982.878906 1961.148438 1998.25 1945.070312 C 2012.941406 1929.851562 2030.339844 1896.625 2031.699219 1881.191406 C 2032.148438 1874.976562 2030.570312 1858.472656 2027.628906 1843.46875 C 2024.238281 1825.03125 2022.660156 1808.742188 2022.660156 1790.523438 C 2022.878906 1759.65625 2020.628906 1751.507812 2000.511719 1706.496094 C 1977.910156 1655.90625 1976.558594 1650.546875 1973.621094 1597.179688 C 1970.679688 1547.019531 1968.421875 1536.941406 1954.859375 1512.71875 C 1948.761719 1502 1941.300781 1488.070312 1938.128906 1481.851562 C 1934.289062 1474.558594 1928.871094 1467.921875 1922.769531 1463.851562 C 1909.429688 1454.628906 1814.738281 1410.46875 1796.210938 1404.679688 C 1780.609375 1399.75 1758.238281 1397.179688 1747.390625 1399.109375 Z M 1593.710938 2418.578125 C 1597.78125 2421.363281 1603.199219 2426.078125 1605.691406 2429.296875 C 1609.75 2434.441406 1609.980469 2436.15625 1607.71875 2443.441406 C 1604.558594 2453.089844 1590.320312 2469.378906 1579.25 2475.808594 C 1563.648438 2485.027344 1546.019531 2478.8125 1531.789062 2459.089844 L 1525 2450.085938 L 1529.300781 2442.371094 C 1534.269531 2433.796875 1548.730469 2421.148438 1558.679688 2416.863281 C 1569.53125 2412.363281 1585.121094 2413.21875 1593.710938 2418.578125 Z M 1593.710938 2418.578125 "/>
<path fill-rule="nonzero" fill="rgb(0%, 0%, 0%)" fill-opacity="1" d="M 1560.941406 2425.222656 C 1544.21875 2433.152344 1534.5 2441.726562 1534.5 2449.015625 C 1534.5 2456.519531 1546.25 2468.523438 1556.871094 2471.953125 C 1563.648438 2474.09375 1566.140625 2473.667969 1575.179688 2469.164062 C 1586.699219 2463.59375 1597.320312 2450.945312 1599.589844 2440.441406 C 1600.488281 2435.296875 1599.589844 2432.511719 1595.519531 2428.007812 C 1588.058594 2419.648438 1575.398438 2418.578125 1560.941406 2425.222656 Z M 1560.941406 2425.222656 "/>
<path fill-rule="nonzero" fill="rgb(0%, 0%, 0%)" fill-opacity="1" d="M 1649.078125 1412.621094 C 1637.101562 1417.761719 1631.898438 1423.761719 1629.871094 1434.480469 C 1627.378906 1447.339844 1629.871094 1454.410156 1637.328125 1455.269531 C 1650.890625 1456.769531 1686.371094 1435.121094 1686.371094 1425.480469 C 1686.371094 1418.828125 1683.660156 1414.96875 1677.109375 1411.761719 C 1668.738281 1407.46875 1660.148438 1407.691406 1649.078125 1412.621094 Z M 1649.078125 1412.621094 "/>
<path fill-rule="nonzero" fill="rgb(0%, 0%, 0%)" fill-opacity="1" d="M 1659.699219 1457.199219 C 1655.628906 1459.128906 1647.269531 1465.128906 1641.171875 1470.488281 C 1630.769531 1479.921875 1629.871094 1481.210938 1629.871094 1490.859375 C 1629.871094 1501.789062 1635.070312 1513.578125 1639.808594 1513.578125 C 1641.390625 1513.578125 1648.179688 1509.929688 1654.730469 1505.429688 C 1665.578125 1498.359375 1667.390625 1496 1671.230469 1484.640625 C 1675.96875 1469.628906 1675.75 1454.839844 1670.550781 1454.199219 C 1668.738281 1453.769531 1663.769531 1455.269531 1659.699219 1457.199219 Z M 1659.699219 1457.199219 "/>
<path fill-rule="nonzero" fill="rgb(0%, 0%, 0%)" fill-opacity="1" d="M 1777.21875 1714.425781 C 1773.378906 1715.925781 1768.628906 1725.144531 1766.820312 1734.574219 C 1765.921875 1739.71875 1767.050781 1747.007812 1770.21875 1757.082031 C 1774.511719 1769.945312 1774.960938 1775.089844 1773.828125 1795.453125 C 1772.25 1822.246094 1767.28125 1849.46875 1762.078125 1859.113281 C 1757.789062 1867.261719 1758.921875 1868.761719 1783.78125 1886.765625 C 1804.121094 1901.34375 1808.410156 1908.628906 1808.410156 1927.707031 C 1808.410156 1953.859375 1819.710938 1963.503906 1837.558594 1952.359375 C 1850.449219 1944.214844 1854.519531 1934.351562 1852.929688 1914.417969 C 1851.578125 1893.839844 1844.800781 1879.90625 1825.359375 1856.542969 C 1816.769531 1846.46875 1810.21875 1836.179688 1809.308594 1832.105469 C 1808.640625 1828.035156 1809.769531 1814.527344 1812.03125 1802.097656 C 1815.191406 1782.589844 1815.421875 1776.589844 1813.160156 1761.15625 C 1807.960938 1725.785156 1794.171875 1707.996094 1777.21875 1714.425781 Z M 1777.21875 1714.425781 "/>
<path fill-rule="nonzero" fill="rgb(0%, 0%, 0%)" fill-opacity="1" d="M 2332.960938 1820.101562 C 2332.058594 1820.101562 2327.761719 1827.605469 2323.238281 1836.609375 C 2312.839844 1858.472656 2299.28125 1875.191406 2271.480469 1900.269531 C 2243.910156 1925.136719 2217.019531 1942.5 2194.640625 1950.214844 C 2173.628906 1957.074219 2165.039062 1963.289062 2158.710938 1975.507812 C 2150.121094 1992.441406 2148.539062 2008.519531 2151.710938 2048.601562 C 2154.640625 2083.328125 2154.421875 2085.257812 2150.128906 2097.6875 C 2147.640625 2104.761719 2138.371094 2122.339844 2129.558594 2136.703125 C 2108.769531 2170.355469 2105.601562 2181.503906 2108.988281 2209.585938 C 2114.640625 2259.3125 2118.929688 2270.457031 2136.789062 2281.605469 C 2159.839844 2295.96875 2163.460938 2296.398438 2189 2289.324219 C 2234.199219 2276.675781 2244.140625 2262.316406 2268.320312 2175.929688 C 2279.621094 2135.632812 2293.179688 2095.117188 2320.53125 2020.953125 C 2356.011719 1924.492188 2361.210938 1901.773438 2354.648438 1872.191406 C 2351.039062 1856.757812 2335.898438 1820.101562 2332.960938 1820.101562 Z M 2332.960938 1820.101562 "/>
<path fill-rule="nonzero" fill="rgb(0%, 0%, 0%)" fill-opacity="1" d="M 1599.808594 1965.863281 C 1556.871094 2010.664062 1548.960938 2015.164062 1514.378906 2015.164062 C 1503.308594 2015.164062 1494.269531 2016.023438 1494.269531 2016.878906 C 1494.269531 2021.167969 1526.140625 2068.109375 1546.480469 2093.832031 C 1574.269531 2128.984375 1600.039062 2154.28125 1614.5 2160.496094 C 1628.96875 2166.925781 1663.539062 2172.285156 1682.75 2171.214844 C 1697.671875 2170.355469 1698.570312 2169.925781 1706.03125 2161.996094 C 1721.628906 2145.0625 1741.519531 2098.117188 1751.910156 2053.746094 C 1765.46875 1996.300781 1749.878906 1974.007812 1681.851562 1953.214844 C 1670.101562 1949.785156 1654.050781 1945.285156 1646.371094 1943.355469 C 1638.679688 1941.640625 1631 1939.496094 1629.191406 1939.070312 C 1627.609375 1938.425781 1615.628906 1949.144531 1599.808594 1965.863281 Z M 1599.808594 1965.863281 "/>
<path fill-rule="nonzero" fill="rgb(0%, 0%, 0%)" fill-opacity="1" d="M 1031.421875 1994.800781 C 1021.25 1999.085938 1018.769531 2006.160156 1023.289062 2019.023438 C 1025.320312 2024.59375 1037.300781 2048.816406 1050.179688 2073.039062 C 1094.929688 2158.136719 1113.910156 2215.585938 1125.890625 2304.757812 C 1131.089844 2343.125 1135.378906 2361.34375 1142.839844 2376.136719 C 1151.878906 2394.140625 1156.628906 2397.140625 1176.289062 2397.570312 C 1191.199219 2398 1195.5 2399.070312 1212.898438 2407.21875 C 1235.269531 2417.933594 1239.570312 2417.933594 1260.589844 2408.074219 C 1283.410156 2397.570312 1282.511719 2401 1284.539062 2317.832031 C 1286.800781 2219.015625 1287.929688 2212.15625 1310.078125 2159.851562 C 1322.511719 2130.058594 1327.03125 2105.191406 1327.03125 2064.679688 L 1327.03125 2030.382812 L 1334.488281 2029.3125 C 1345.789062 2027.382812 1388.5 2023.953125 1417.429688 2022.453125 C 1447.488281 2020.953125 1457.878906 2018.808594 1465.339844 2013.019531 C 1469.859375 2009.375 1470.089844 2008.519531 1467.148438 2006.589844 C 1460.820312 2002.730469 1429.410156 2004.445312 1389.628906 2010.878906 C 1367.929688 2014.308594 1344.210938 2017.308594 1336.75 2017.308594 C 1329.519531 2017.308594 1308.949219 2014.308594 1290.871094 2010.664062 C 1233.238281 1999.300781 1221.488281 1998.015625 1174.480469 1999.515625 C 1136.960938 2000.589844 1128.148438 2000.160156 1103.960938 1996.085938 C 1072.328125 1990.941406 1042.269531 1990.300781 1031.421875 1994.800781 Z M 1031.421875 1994.800781 "/>
<path fill-rule="nonzero" fill="rgb(0%, 0%, 0%)" fill-opacity="1" d="M 1466.25 2020.738281 C 1448.621094 2029.953125 1435.058594 2032.527344 1412.679688 2031.027344 C 1396.640625 2029.953125 1383.53125 2030.597656 1363.410156 2033.382812 L 1336.070312 2037.242188 L 1336.070312 2066.394531 C 1336.070312 2108.835938 1331.769531 2129.199219 1313.46875 2172.929688 C 1299.230469 2206.582031 1295.390625 2221.15625 1295.390625 2241.09375 C 1295.390625 2258.457031 1298.101562 2265.957031 1306.691406 2273.460938 C 1316.410156 2281.820312 1320.929688 2293.824219 1322.511719 2315.902344 C 1323.191406 2327.476562 1325.21875 2337.980469 1326.578125 2339.265625 C 1328.609375 2341.195312 1331.550781 2340.980469 1338.78125 2339.050781 C 1362.289062 2332.40625 1379.011719 2319.117188 1379.011719 2306.898438 C 1379.011719 2300.46875 1384.890625 2290.179688 1390.078125 2287.394531 C 1398.441406 2283.320312 1414.039062 2285.035156 1431.21875 2291.894531 C 1450.648438 2299.824219 1464.660156 2300.683594 1473.25 2294.679688 C 1476.410156 2292.324219 1483.421875 2283.320312 1488.621094 2274.53125 C 1495.628906 2262.742188 1500.371094 2257.167969 1506.929688 2253.738281 C 1516.421875 2248.808594 1558 2214.085938 1588.738281 2186.21875 L 1607.269531 2168.855469 L 1584.21875 2146.132812 C 1557.78125 2120.199219 1529.300781 2085.257812 1505.339844 2049.460938 C 1496.53125 2035.957031 1487.488281 2023.09375 1485.679688 2020.953125 C 1481.609375 2016.449219 1474.828125 2016.449219 1466.25 2020.738281 Z M 1466.25 2020.738281 "/>
<path fill-rule="nonzero" fill="rgb(0%, 0%, 0%)" fill-opacity="1" d="M 1682.980469 2313.117188 C 1680.269531 2313.972656 1677.109375 2316.117188 1675.519531 2318.046875 C 1671.230469 2322.761719 1671.449219 2335.621094 1675.96875 2342.054688 C 1681.171875 2349.554688 1692.929688 2356.199219 1699.929688 2355.558594 C 1704.898438 2354.914062 1705.578125 2353.84375 1706.261719 2345.484375 C 1707.160156 2334.121094 1701.511719 2318.6875 1694.730469 2314.1875 C 1689.308594 2310.542969 1689.308594 2310.542969 1682.980469 2313.117188 Z M 1682.980469 2313.117188 "/>
</svg>
